<svg width="35" height="35" viewBox="0 0 35 35" fill="none" xmlns="http://www.w3.org/2000/svg">
<g clip-path="url(#clip0_91_13)">
<path d="M25.5208 2.79562C23.8787 2.82117 22.2723 3.27958 20.864 4.12456C19.4557 4.96955 18.2953 6.17118 17.5 7.60812C16.7047 6.17118 15.5443 4.96955 14.136 4.12456C12.7277 3.27958 11.1213 2.82117 9.47917 2.79562C6.86137 2.90936 4.39499 4.05454 2.61885 5.98096C0.842711 7.90739 -0.0988039 10.4585 -1.06283e-06 13.0769C-1.06283e-06 19.7079 6.97958 26.95 12.8333 31.8602C14.1403 32.9585 15.7928 33.5607 17.5 33.5607C19.2072 33.5607 20.8597 32.9585 22.1667 31.8602C28.0204 26.95 35 19.7079 35 13.0769C35.0988 10.4585 34.1573 7.90739 32.3811 5.98096C30.605 4.05454 28.1386 2.90936 25.5208 2.79562Z" fill="black"/>
</g>
<defs>
<clipPath id="clip0_91_13">
<rect width="35" height="35" fill="white"/>
</clipPath>
</defs>
</svg>
