<svg width="35" height="35" viewBox="0 0 35 35" fill="none" xmlns="http://www.w3.org/2000/svg">
<g clip-path="url(#clip0_91_6)">
<path d="M10.8267 30.625C11.392 31.925 12.3247 33.0315 13.5102 33.8087C14.6957 34.5859 16.0824 34.9999 17.5 34.9999C18.9176 34.9999 20.3043 34.5859 21.4898 33.8087C22.6753 33.0315 23.608 31.925 24.1733 30.625H10.8267Z" fill="black"/>
<path d="M32.655 18.3006L30.1234 9.95457C29.3126 7.03549 27.55 4.47091 25.1153 2.66801C22.6805 0.865114 19.7133 -0.0727559 16.6847 0.00331135C13.6561 0.0793786 10.7397 1.16502 8.39852 3.08787C6.05738 5.01072 4.42569 7.66056 3.76253 10.6167L1.79669 18.6914C1.53541 19.7644 1.52125 20.8827 1.75529 21.962C1.98933 23.0412 2.46545 24.0532 3.14772 24.9216C3.83 25.7899 4.7006 26.492 5.69382 26.9747C6.68704 27.4575 7.77695 27.7083 8.88128 27.7083H25.6769C26.8155 27.7084 27.9382 27.4418 28.9553 26.9299C29.9723 26.418 30.8553 25.6751 31.5336 24.7607C32.2119 23.8462 32.6666 22.7856 32.8614 21.6638C33.0561 20.542 32.9854 19.3902 32.655 18.3006V18.3006Z" fill="black"/>
</g>
<defs>
<clipPath id="clip0_91_6">
<rect width="35" height="35" fill="white"/>
</clipPath>
</defs>
</svg>
