<svg width="35" height="35" viewBox="0 0 35 35" fill="none" xmlns="http://www.w3.org/2000/svg">
<path d="M32.7148 15.039L25.9018 21.6802L27.5107 31.0602C27.5807 31.4704 27.4123 31.8849 27.0754 32.1299C26.8851 32.2688 26.6587 32.3388 26.4323 32.3388C26.2584 32.3388 26.0834 32.2973 25.9237 32.2131L17.4996 27.7845L9.07665 32.212C8.70915 32.4067 8.26181 32.3749 7.92493 32.1288C7.58806 31.8838 7.41962 31.4693 7.48962 31.0592L9.09853 21.6791L2.28447 15.039C1.98697 14.7481 1.87868 14.3127 2.00775 13.9179C2.13681 13.5231 2.47915 13.2332 2.8915 13.1731L12.3076 11.8059L16.5185 3.27243C16.8871 2.5254 18.1121 2.5254 18.4807 3.27243L22.6917 11.8059L32.1077 13.1731C32.5201 13.2332 32.8624 13.522 32.9915 13.9179C33.1206 14.3138 33.0123 14.747 32.7148 15.039V15.039Z" fill="black"/>
</svg>
