<svg width="187" height="179" viewBox="0 0 187 179" fill="none" xmlns="http://www.w3.org/2000/svg">
<path d="M167.559 0.676193L10.3962 49.3718C7.48492 50.1446 4.90096 51.8367 3.02888 54.1964C1.15681 56.5561 0.096693 59.4572 0.00630118 62.4679C-0.0840906 65.4786 0.800075 68.4381 2.52722 70.9058C4.25436 73.3736 6.73214 75.2177 9.59183 76.1637L80.8718 100.047C81.1316 100.146 81.3693 100.295 81.5711 100.487C81.7729 100.678 81.9348 100.907 82.0474 101.161L108.282 169.224C109.344 171.958 111.218 174.301 113.652 175.939C116.085 177.576 118.962 178.428 121.895 178.381H122.266C125.248 178.372 128.151 177.422 130.562 175.667C132.973 173.911 134.769 171.44 135.693 168.605L185.688 18.4962C186.472 16.0928 186.587 13.5214 186.02 11.0579C185.453 8.5943 184.226 6.33156 182.471 4.51244C180.593 2.54132 178.2 1.13674 175.564 0.458536C172.928 -0.219665 170.154 -0.144252 167.559 0.676193V0.676193Z" fill="#FFD84D"/>
</svg>
