<svg width="722" height="310" viewBox="0 0 722 310" fill="none" xmlns="http://www.w3.org/2000/svg">
<path d="M68.4367 305L89.7007 172.313L0.391933 5.17756H85.4479L135.631 102.992L216.859 5.17756H309.145L167.952 171.887L146.688 305H68.4367ZM412.282 309.678C383.647 309.678 358.697 304.433 337.433 293.943C316.169 283.169 299.583 267.859 287.675 248.012C276.051 227.883 270.239 203.642 270.239 175.29C270.239 140.7 277.043 110.363 290.652 84.2796C304.261 57.9123 323.257 37.3571 347.64 22.614C372.306 7.87101 400.8 0.49949 433.121 0.49949C461.757 0.49949 486.706 5.88637 507.97 16.6601C529.234 27.1504 545.678 42.4604 557.303 62.5904C569.211 82.4368 575.165 106.394 575.165 134.463C575.165 169.336 568.36 199.956 554.751 226.323C541.142 252.407 522.146 272.82 497.764 287.564C473.381 302.307 444.887 309.678 412.282 309.678ZM413.133 244.185C430.144 244.185 444.604 239.649 456.511 230.576C468.703 221.503 478.059 208.887 484.58 192.726C491.101 176.282 494.361 157.428 494.361 136.164C494.361 112.348 488.691 94.7699 477.35 83.4291C466.293 71.8048 451.125 65.9926 431.845 65.9926C415.117 65.9926 400.658 70.5289 388.467 79.6016C376.559 88.6742 367.344 101.433 360.823 117.877C354.586 134.037 351.467 152.75 351.467 174.014C351.467 197.829 356.996 215.549 368.053 227.174C379.11 238.515 394.137 244.185 413.133 244.185ZM621.793 200.806L629.022 5.17756H721.733L667.297 200.806H621.793ZM589.046 305L601.379 227.599H680.056L667.723 305H589.046Z" fill="#A0479A"/>
</svg>
