<svg width="35" height="35" viewBox="0 0 35 35" fill="none" xmlns="http://www.w3.org/2000/svg">
<g clip-path="url(#clip0_7_7)">
<path d="M14.0193 34.9169C14.4823 35.1148 15.0206 34.9496 15.291 34.5224L27.5957 14.9716C27.795 14.6552 27.807 14.2556 27.6268 13.9292C27.4465 13.6018 27.102 13.3985 26.7285 13.3985H18.5164L21.5705 1.27776C21.6937 0.788097 21.4443 0.282375 20.9807 0.083107C20.5201 -0.115135 19.9784 0.0510464 19.709 0.477609L7.40427 20.0284C7.205 20.3448 7.19297 20.7444 7.37324 21.0708C7.5535 21.3982 7.89796 21.6015 8.27148 21.6015H16.4836L13.4295 33.7223C13.3063 34.212 13.5556 34.7177 14.0193 34.9169V34.9169Z" fill="black"/>
</g>
<defs>
<clipPath id="clip0_7_7">
<rect width="35" height="35" fill="white"/>
</clipPath>
</defs>
</svg>
